<svg width="118" height="14" viewBox="0 0 118 14" fill="none" xmlns="http://www.w3.org/2000/svg">
<path d="M1.0799 5.56474C1.0799 3.33497 1.01725 1.51055 0.923279 1.05839C1.04858 1.08959 1.42417 1.08959 1.61211 1.08959C1.95637 1.08959 2.41027 1.07399 2.55123 1.04279C2.48858 1.61977 2.42593 3.33497 2.42593 5.51794L2.42593 8.19987C2.42593 11.3497 2.45725 11.7395 2.53557 11.8019C2.61388 11.8643 2.75469 11.8955 2.91115 11.911C3.22425 11.9422 3.77211 11.9578 4.44513 11.9578C6.19822 11.9578 6.8244 11.8175 7.19999 11.646C7.05918 11.9266 6.90256 12.6128 6.84006 12.8467C6.76175 12.8623 6.60529 12.8779 5.90079 12.8779C3.61565 12.8779 2.50424 12.7842 1.75292 12.7842C1.39284 12.7842 1.15806 12.7842 0.970265 12.8154C1.01725 12.2697 1.0799 10.5077 1.0799 8.30909L1.0799 5.56474V5.56474Z" fill="white"/>
<path d="M19.5803 1.08959C20.0187 1.08959 20.3787 1.07399 20.5665 1.04279C20.504 1.52616 20.4413 3.35057 20.4413 5.56475L20.4413 7.73211C20.4413 9.79041 20.8952 10.6013 21.5527 11.2093C22.2884 11.911 23.2588 12.0202 23.9945 12.0202C24.6988 12.0202 25.6693 11.8331 26.2641 11.1781C27.0624 10.3362 27.2502 9.19783 27.2502 7.40477V5.56475C27.2502 3.33497 27.1563 1.61977 27.0779 1.05839C27.2502 1.0896 27.5477 1.0896 27.7041 1.0896C28.0329 1.0896 28.3771 1.05839 28.4555 1.04279C28.3928 1.52616 28.3145 3.35058 28.3145 5.56475V7.37356C28.3145 9.19783 28.1424 10.913 26.8275 12.067C25.8884 12.8935 24.6832 13.0493 23.6501 13.0493C22.57 13.0493 21.2709 12.7843 20.4256 12.0046C19.643 11.2717 19.0951 10.2582 19.0951 8.0128L19.0951 5.56475C19.0951 3.33497 19.0326 1.44815 18.9387 1.05839C19.0795 1.0896 19.3456 1.0896 19.5803 1.0896V1.08959Z" fill="white"/>
<path d="M43.0117 12.7844C42.8551 12.7844 42.3542 12.8156 42.2448 12.8312C42.3699 11.537 42.4169 4.53574 42.4169 1.74458C42.4169 0.902657 42.4482 0.824646 42.5422 0.824646C42.6047 0.824646 42.73 0.949313 43.0431 1.26121C44.5301 2.80493 50.0085 9.15131 51.245 10.2895C51.2137 7.76346 51.1824 2.71132 51.0572 1.05853C51.198 1.08973 51.4641 1.08973 51.6676 1.08973C51.9493 1.08973 52.3406 1.05853 52.4502 1.04292C52.3719 1.97846 52.2781 5.6741 52.2781 8.83941C52.2781 10.1649 52.2938 10.8821 52.2938 11.5838C52.2938 12.9247 52.2624 13.0495 52.1685 13.0495C52.059 13.0495 51.7772 12.7688 50.9163 11.8801C49.6327 10.5858 45.2031 5.2998 43.4656 3.45977C43.497 6.81232 43.5439 11.5838 43.6691 12.8156C43.45 12.7844 43.2309 12.7844 43.0117 12.7844V12.7844Z" fill="white"/>
<path d="M67.6798 8.68339C67.6328 8.68339 67.6172 8.69899 67.6016 8.7302C67.1163 10.0868 66.3963 12.0827 66.2085 12.8156C66.052 12.7844 65.911 12.7844 65.5824 12.7844C65.2694 12.7844 64.878 12.8156 64.7528 12.8312C65.1441 12.0047 65.7389 10.6326 66.3651 9.12011L69.4642 1.46389C69.652 1.01172 69.7303 0.824646 69.8243 0.824646C69.9025 0.824646 69.9808 0.949313 70.1999 1.46389C70.3722 1.8538 71.906 5.34661 73.2522 8.51192C73.9565 10.1803 74.8332 12.2074 75.2401 12.8156C74.9583 12.8 74.6922 12.7844 74.5201 12.7844C74.1287 12.7844 73.6904 12.8 73.5026 12.8312C73.2522 12.1139 72.3912 9.99324 71.8592 8.7302C71.8435 8.699 71.8435 8.68339 71.7965 8.68339L67.6798 8.68339V8.68339ZM71.4678 7.77906C71.4991 7.77906 71.5148 7.76346 71.4991 7.71665L69.652 3.17924L67.9459 7.71665C67.9302 7.76346 67.9459 7.77906 67.9772 7.77906L71.4678 7.77906V7.77906Z" fill="white"/>
<path d="M87.6515 5.56491C87.6515 3.33513 87.6202 1.57312 87.4637 1.05855C87.7454 1.08975 87.9489 1.08975 88.1837 1.08975C88.4966 1.08975 89.702 1.02734 90.2499 1.02734C91.3141 1.02734 92.3159 1.16777 92.989 1.58873C93.8029 2.1033 94.3821 3.02323 94.3821 4.146C94.3821 5.5025 93.7404 6.59406 92.4725 7.46718C93.4743 8.79263 94.6168 10.3676 95.6969 11.5214C96.3543 12.2542 96.8395 12.6597 97.1369 12.7844C96.9335 12.8624 96.4952 12.878 96.1195 12.878C95.4152 12.878 95.0394 12.6752 94.3977 12.0047C93.5368 11.1472 92.0811 8.9953 91.3611 8.02856C91.2985 7.95055 91.236 7.91935 91.1577 7.91935C90.8289 7.93495 89.702 7.91935 89.0132 7.9039C88.9663 7.9039 88.9663 7.93495 88.9663 7.99736V8.48073C88.9663 10.4454 89.0288 12.1296 89.1071 12.8156C88.9663 12.7844 88.6846 12.7844 88.4185 12.7844C88.1367 12.7844 87.6671 12.8 87.4948 12.8312C87.5888 12.301 87.6515 10.3364 87.6515 8.30925V5.56491V5.56491ZM88.9663 6.84354C88.9663 6.937 88.982 6.96821 89.0132 6.98381C89.3263 7.04622 90.1089 7.09303 90.9385 7.09303C91.3924 7.09303 91.6429 7.04622 91.8463 6.90595C92.4725 6.45363 93.0359 5.64292 93.0359 4.52015C93.0359 2.86736 91.9716 1.85382 90.1715 1.85382C89.6863 1.85382 89.2481 1.86942 89.0288 1.91623C88.9663 1.93168 88.9663 1.96288 88.9663 2.02529V6.84354V6.84354Z" fill="white"/>
<path d="M110.253 8.68339C110.206 8.68339 110.191 8.69899 110.175 8.7302C109.69 10.0868 108.97 12.0827 108.782 12.8156C108.625 12.7844 108.485 12.7844 108.156 12.7844C107.843 12.7844 107.451 12.8156 107.326 12.8312C107.718 12.0047 108.312 10.6326 108.938 9.12011L112.038 1.46389C112.225 1.01172 112.304 0.824646 112.398 0.824646C112.476 0.824646 112.554 0.949313 112.773 1.46389C112.945 1.8538 114.479 5.34661 115.826 8.51192C116.53 10.1803 117.407 12.2074 117.814 12.8156C117.532 12.8 117.266 12.7844 117.094 12.7844C116.702 12.7844 116.264 12.8 116.076 12.8312C115.826 12.1139 114.965 9.99324 114.433 8.7302C114.417 8.699 114.417 8.68339 114.37 8.68339L110.253 8.68339L110.253 8.68339ZM114.041 7.77906C114.073 7.77906 114.088 7.76346 114.073 7.71665L112.225 3.17924L110.519 7.71665C110.504 7.76346 110.519 7.77906 110.551 7.77906L114.041 7.77906V7.77906Z" fill="white"/>
</svg>
