<svg width="181" height="208" viewBox="0 0 181 208" fill="none" xmlns="http://www.w3.org/2000/svg">
<g filter="url(#filter0_d_1_812)">
<mask id="path-1-inside-1_1_812" fill="white">
<path d="M54.6206 4.78819C54.6206 3.94164 54.3037 3.13559 53.727 2.51215L56.0515 0.194148L55.8568 0L53.5323 2.31803C52.9072 1.74288 52.099 1.42686 51.25 1.42686C50.2021 1.42686 49.2354 1.89976 48.5903 2.7261C47.1617 2.02323 45.6262 1.66686 44.0259 1.66686C38.3166 1.66686 33.6718 6.29887 33.6718 11.9924C33.6718 14.6963 34.7154 17.251 36.6115 19.1921L32.0002 23.7906L32.195 23.9847L36.8062 19.3862C38.7527 21.2771 41.3144 22.3179 44.0259 22.3179C49.7352 22.3179 54.38 17.6859 54.38 11.9924C54.38 10.3965 54.0227 8.86524 53.3179 7.44052C54.1464 6.7973 54.6206 5.83328 54.6206 4.78819ZM44.0259 22.0433C41.3877 22.0433 38.8953 21.0313 37.0009 19.1921L42.7195 13.4892C43.0832 13.8054 43.545 13.9789 44.0259 13.9789C45.1243 13.9789 46.0179 13.0877 46.0179 11.9924C46.0179 11.5128 45.8439 11.0523 45.5269 10.6896L48.9677 7.25836C49.5928 7.8335 50.4011 8.14953 51.25 8.14953C51.9073 8.14953 52.5424 7.96059 53.0909 7.60247C53.7636 8.97787 54.1047 10.4545 54.1047 11.9924C54.1047 17.5345 49.5833 22.0433 44.0259 22.0433ZM44.0259 1.94145C45.5681 1.94145 47.0488 2.28155 48.4279 2.95244C48.0688 3.49943 47.8794 4.13266 47.8794 4.78819C47.8794 5.63477 48.1963 6.44082 48.773 7.06421L45.3322 10.4955C44.9685 10.1793 44.5068 10.0058 44.0259 10.0058C42.9274 10.0058 42.0339 10.897 42.0339 11.9924C42.0339 12.472 42.2078 12.9324 42.5249 13.2951L36.8062 18.9979C34.9619 17.1088 33.9471 14.6232 33.9471 11.9924C33.9471 6.45025 38.4684 1.94145 44.0259 1.94145ZM48.9678 6.86998C48.443 6.29862 48.1547 5.56166 48.1547 4.78819C48.1547 4.17577 48.3347 3.58519 48.6759 3.07679C49.5456 3.5297 50.3441 4.10663 51.0508 4.79266L48.9678 6.86998ZM48.8409 2.85333C49.4333 2.1204 50.3074 1.70144 51.25 1.70144C52.0256 1.70144 52.7646 1.98895 53.3375 2.51226L51.2455 4.59852C50.5296 3.90308 49.7211 3.31636 48.8409 2.85333ZM51.25 7.87495C50.4744 7.87495 49.7354 7.58744 49.1625 7.06413L51.2455 4.98679C51.9335 5.6916 52.512 6.48791 52.9662 7.35514C52.4563 7.69539 51.8641 7.87495 51.25 7.87495ZM51.4402 4.79267L53.5322 2.70641C54.057 3.27783 54.3453 4.01479 54.3453 4.7882C54.3453 5.72811 53.9252 6.59989 53.1902 7.19059C52.726 6.31294 52.1376 5.50673 51.4402 4.79267Z"/>
</mask>
<path d="M54.6206 4.78819C54.6206 3.94164 54.3037 3.13559 53.727 2.51215L56.0515 0.194148L55.8568 0L53.5323 2.31803C52.9072 1.74288 52.099 1.42686 51.25 1.42686C50.2021 1.42686 49.2354 1.89976 48.5903 2.7261C47.1617 2.02323 45.6262 1.66686 44.0259 1.66686C38.3166 1.66686 33.6718 6.29887 33.6718 11.9924C33.6718 14.6963 34.7154 17.251 36.6115 19.1921L32.0002 23.7906L32.195 23.9847L36.8062 19.3862C38.7527 21.2771 41.3144 22.3179 44.0259 22.3179C49.7352 22.3179 54.38 17.6859 54.38 11.9924C54.38 10.3965 54.0227 8.86524 53.3179 7.44052C54.1464 6.7973 54.6206 5.83328 54.6206 4.78819ZM44.0259 22.0433C41.3877 22.0433 38.8953 21.0313 37.0009 19.1921L42.7195 13.4892C43.0832 13.8054 43.545 13.9789 44.0259 13.9789C45.1243 13.9789 46.0179 13.0877 46.0179 11.9924C46.0179 11.5128 45.8439 11.0523 45.5269 10.6896L48.9677 7.25836C49.5928 7.8335 50.4011 8.14953 51.25 8.14953C51.9073 8.14953 52.5424 7.96059 53.0909 7.60247C53.7636 8.97787 54.1047 10.4545 54.1047 11.9924C54.1047 17.5345 49.5833 22.0433 44.0259 22.0433ZM44.0259 1.94145C45.5681 1.94145 47.0488 2.28155 48.4279 2.95244C48.0688 3.49943 47.8794 4.13266 47.8794 4.78819C47.8794 5.63477 48.1963 6.44082 48.773 7.06421L45.3322 10.4955C44.9685 10.1793 44.5068 10.0058 44.0259 10.0058C42.9274 10.0058 42.0339 10.897 42.0339 11.9924C42.0339 12.472 42.2078 12.9324 42.5249 13.2951L36.8062 18.9979C34.9619 17.1088 33.9471 14.6232 33.9471 11.9924C33.9471 6.45025 38.4684 1.94145 44.0259 1.94145ZM48.9678 6.86998C48.443 6.29862 48.1547 5.56166 48.1547 4.78819C48.1547 4.17577 48.3347 3.58519 48.6759 3.07679C49.5456 3.5297 50.3441 4.10663 51.0508 4.79266L48.9678 6.86998ZM48.8409 2.85333C49.4333 2.1204 50.3074 1.70144 51.25 1.70144C52.0256 1.70144 52.7646 1.98895 53.3375 2.51226L51.2455 4.59852C50.5296 3.90308 49.7211 3.31636 48.8409 2.85333ZM51.25 7.87495C50.4744 7.87495 49.7354 7.58744 49.1625 7.06413L51.2455 4.98679C51.9335 5.6916 52.512 6.48791 52.9662 7.35514C52.4563 7.69539 51.8641 7.87495 51.25 7.87495ZM51.4402 4.79267L53.5322 2.70641C54.057 3.27783 54.3453 4.01479 54.3453 4.7882C54.3453 5.72811 53.9252 6.59989 53.1902 7.19059C52.726 6.31294 52.1376 5.50673 51.4402 4.79267Z" fill="white"/>
<path d="M53.727 2.51215L-652.397 -705.576L-1334.4 -25.4665L-680.355 681.572L53.727 2.51215ZM56.0515 0.194148L762.175 708.283L1472.28 0.151671L762.133 -707.937L56.0515 0.194148ZM55.8568 0L761.938 -708.131L55.8105 -1412.21L-650.271 -708.085L55.8568 0ZM53.5323 2.31803L-623.549 738.226L81.3811 1386.81L759.66 710.403L53.5323 2.31803ZM48.5903 2.7261L-392.854 900.015L336.626 1258.9L836.869 618.045L48.5903 2.7261ZM36.6115 19.1921L742.739 727.277L1443.55 28.4057L751.952 -679.584L36.6115 19.1921ZM32.0002 23.7906L-674.127 -684.294L-1384.22 23.8388L-674.079 731.923L32.0002 23.7906ZM32.195 23.9847L-673.884 732.117L32.2431 1436.2L738.323 732.069L32.195 23.9847ZM36.8062 19.3862L733.605 -697.88L27.6232 -1383.72L-669.322 -688.698L36.8062 19.3862ZM53.3179 7.44052L-559.893 -782.479L-1205.28 -281.466L-842.999 450.854L53.3179 7.44052ZM37.0009 19.1921L-669.127 -688.892L-1388.75 28.7404L-659.58 736.671L37.0009 19.1921ZM42.7195 13.4892L698.801 -741.201L-4.00407 -1352.18L-663.408 -694.595L42.7195 13.4892ZM45.5269 10.6896L-660.598 -697.398L-1323.66 -36.176L-707.363 668.836L45.5269 10.6896ZM48.9677 7.25836L726.017 -728.679L21.0915 -1377.2L-657.157 -700.829L48.9677 7.25836ZM53.0909 7.60247L951.39 -431.781L454.085 -1448.5L-493.618 -829.721L53.0909 7.60247ZM48.4279 2.95245L884.4 551.724L1508.41 -398.862L485.879 -896.289L48.4279 2.95245ZM48.773 7.06421L754.898 715.151L1436.93 35.0127L782.827 -672.027L48.773 7.06421ZM45.3322 10.4955L-610.75 765.185L92.0531 1376.16L751.457 718.583L45.3322 10.4955ZM42.5249 13.2951L748.651 721.381L1411.71 60.1597L795.414 -644.852L42.5249 13.2951ZM36.8062 18.9979L-678.753 717.55L27.2715 1440.76L742.932 727.084L36.8062 18.9979ZM48.9678 6.86998L-687.517 683.324L17.3152 1450.71L755.1 714.95L48.9678 6.86998ZM48.6759 3.07679L510.579 -883.854L-283.041 -1297.16L-781.667 -554.175L48.6759 3.07679ZM51.0508 4.79266L757.183 712.873L1476.86 -4.82622L747.566 -712.75L51.0508 4.79266ZM48.8409 2.85333L-728.888 -625.747L-1494.17 321.09L-416.713 887.873L48.8409 2.85333ZM53.3375 2.51226L759.461 710.601L1501.35 -29.2265L727.756 -735.837L53.3375 2.51226ZM51.2455 4.59852L-645.522 721.896L60.4547 1407.67L757.368 712.688L51.2455 4.59852ZM49.1625 7.06413L-656.975 -701.011L-1398.8 38.7813L-625.292 745.381L49.1625 7.06413ZM51.2455 4.98679L766.845 -693.524L60.8105 -1416.83L-654.891 -703.088L51.2455 4.98679ZM52.9662 7.35514L608.072 839.135L1356 339.992L938.839 -456.572L52.9662 7.35514ZM51.4402 4.79267L-654.692 -703.287L-1355.42 -4.4828L-663.967 703.5L51.4402 4.79267ZM53.5322 2.70641L790.05 -673.712L85.2203 -1441.16L-652.6 -705.373L53.5322 2.70641ZM53.1902 7.19059L-830.768 474.756L-264.443 1545.43L679.649 786.645L53.1902 7.19059ZM1054.62 4.78819C1054.62 -249.235 958.378 -492.159 787.81 -676.548L-680.355 681.572C-849.77 498.431 -945.379 257.118 -945.379 4.78819L1054.62 4.78819ZM759.851 710.601L762.175 708.283L-650.072 -707.894L-652.397 -705.576L759.851 710.601ZM762.133 -707.937L761.938 -708.131L-650.224 708.131L-650.03 708.325L762.133 -707.937ZM-650.271 -708.085L-652.595 -705.767L759.66 710.403L761.984 708.085L-650.271 -708.085ZM730.614 -733.59C545.921 -903.519 303.629 -998.573 51.25 -998.573L51.25 1001.43C-199.431 1001.43 -440.107 907.005 -623.549 738.226L730.614 -733.59ZM51.25 -998.573C-258.596 -998.573 -550.045 -855.542 -739.688 -612.593L836.869 618.045C648.516 859.342 359.001 1001.43 51.25 1001.43L51.25 -998.573ZM490.035 -894.562C350.557 -963.182 197.913 -998.333 44.0259 -998.333L44.0259 1001.67C-106.66 1001.67 -256.234 967.229 -392.854 900.015L490.035 -894.562ZM44.0259 -998.333C-511.357 -998.333 -966.328 -548.593 -966.328 11.9924L1033.67 11.9924C1033.67 561.191 587.99 1001.67 44.0259 1001.67L44.0259 -998.333ZM-966.328 11.9924C-966.328 277.101 -862.246 530.101 -678.729 717.968L751.952 -679.584C931.677 -495.599 1033.67 -247.708 1033.67 11.9924L-966.328 11.9924ZM-669.516 -688.892L-674.127 -684.294L738.128 731.875L742.739 727.277L-669.516 -688.892ZM-674.079 731.923L-673.884 732.117L738.274 -684.148L738.08 -684.342L-674.079 731.923ZM738.323 732.069L742.934 727.471L-669.322 -688.698L-673.933 -684.1L738.323 732.069ZM-659.993 736.653C-471.737 919.537 -219.345 1022.32 44.0259 1022.32L44.0259 -977.682C301.974 -977.682 549.242 -876.983 733.605 -697.88L-659.993 736.653ZM44.0259 1022.32C599.407 1022.32 1054.38 572.58 1054.38 11.9924L-945.62 11.9924C-945.62 -537.208 -499.937 -977.682 44.0259 -977.682L44.0259 1022.32ZM1054.38 11.9924C1054.38 -142.802 1018.81 -296.137 949.635 -435.973L-842.999 450.854C-910.768 313.867 -945.62 163.595 -945.62 11.9924L1054.38 11.9924ZM666.528 797.36C909.758 608.542 1054.62 316.79 1054.62 4.78819L-945.379 4.78819C-945.379 -305.124 -801.465 -594.948 -559.893 -782.479L666.528 797.36ZM44.0259 -977.957C301.903 -977.957 549.159 -877.337 733.582 -698.286L-659.58 736.671C-471.368 919.4 -219.128 1022.04 44.0259 1022.04L44.0259 -977.957ZM743.129 727.277L748.847 721.574L-663.408 -694.595L-669.127 -688.892L743.129 727.277ZM-613.362 768.179C-432.131 925.731 -199.025 1013.98 44.0259 1013.98L44.0259 -986.021C286.115 -986.021 518.297 -898.12 698.801 -741.201L-613.362 768.179ZM44.0259 1013.98C594.808 1013.98 1046.02 567.97 1046.02 11.9924L-953.982 11.9924C-953.982 -541.794 -504.56 -986.021 44.0259 -986.021L44.0259 1013.98ZM1046.02 11.9924C1046.02 -232.642 956.66 -466.434 798.416 -647.457L-707.363 668.836C-864.972 488.539 -953.982 255.667 -953.982 11.9924L1046.02 11.9924ZM751.652 718.777L755.093 715.346L-657.157 -700.829L-660.598 -697.398L751.652 718.777ZM-628.082 743.196C-443.409 913.092 -201.136 1008.15 51.25 1008.15L51.25 -991.85C301.938 -991.85 542.594 -897.425 726.017 -728.679L-628.082 743.196ZM51.25 1008.15C245.702 1008.15 436.362 951.637 599.799 844.926L-493.618 -829.721C-331.278 -935.716 -141.887 -991.85 51.25 -991.85L51.25 1008.15ZM-845.208 446.986C-911.739 310.967 -945.895 162.093 -945.895 11.9924L1054.1 11.9924C1054.1 -141.184 1019.27 -293.012 951.39 -431.781L-845.208 446.986ZM-945.895 11.9924C-945.895 -537.361 -500.087 -977.957 44.0259 -977.957L44.0259 1022.04C599.254 1022.04 1054.1 572.43 1054.1 11.9924L-945.895 11.9924ZM44.0259 1001.94C-105.149 1001.94 -253.342 968.199 -389.024 902.194L485.879 -896.289C347.439 -963.636 196.285 -998.059 44.0259 -998.059L44.0259 1001.94ZM-787.545 -545.819C-894.93 -382.234 -952.121 -190.847 -952.121 4.78819L1047.88 4.78819C1047.88 199.113 991.067 389.233 884.4 551.724L-787.545 -545.819ZM-952.121 4.78819C-952.121 258.846 -855.853 501.778 -685.281 686.155L782.827 -672.027C952.246 -488.896 1047.88 -247.576 1047.88 4.78819L-952.121 4.78819ZM-657.352 -701.023L-660.793 -697.592L751.457 718.583L754.898 715.151L-657.352 -701.023ZM701.414 -744.194C520.154 -901.77 287.04 -989.994 44.0259 -989.994L44.0259 1010.01C-198.026 1010.01 -430.217 922.129 -610.75 765.185L701.414 -744.194ZM44.0259 -989.994C-506.765 -989.994 -957.966 -543.977 -957.966 11.9924L1042.03 11.9924C1042.03 565.771 592.62 1010.01 44.0259 1010.01L44.0259 -989.994ZM-957.966 11.9924C-957.966 256.645 -868.596 490.433 -710.365 671.442L795.414 -644.852C953.011 -464.568 1042.03 -231.701 1042.03 11.9924L-957.966 11.9924ZM-663.601 -694.791L-669.32 -689.088L742.932 727.084L748.651 721.381L-663.601 -694.791ZM752.365 -679.554C932.036 -495.509 1033.95 -247.632 1033.95 11.9924L-966.053 11.9924C-966.053 276.879 -862.113 529.726 -678.753 717.55L752.365 -679.554ZM1033.95 11.9924C1033.95 561.342 588.142 1001.94 44.0259 1001.94L44.0259 -998.059C-511.205 -998.059 -966.053 -548.442 -966.053 11.9924L1033.95 11.9924ZM785.453 -669.584C953.422 -486.709 1048.15 -246.417 1048.15 4.78819L-951.845 4.78819C-951.845 257.54 -856.536 499.306 -687.517 683.324L785.453 -669.584ZM1048.15 4.78819C1048.15 202.867 989.153 396.222 879.019 560.329L-781.667 -554.175C-892.484 -389.051 -951.845 -194.516 -951.845 4.78819L1048.15 4.78819ZM-413.227 890.007C-498.766 845.459 -576.922 788.868 -645.464 722.335L747.566 -712.75C677.61 -780.655 597.857 -838.4 510.579 -883.854L-413.227 890.007ZM-655.081 -703.287L-657.165 -701.21L755.1 714.95L757.183 712.873L-655.081 -703.287ZM826.57 631.453C637.983 864.78 353.408 1001.7 51.25 1001.7L51.25 -998.299C-252.793 -998.299 -539.117 -860.539 -728.888 -625.747L826.57 631.453ZM51.25 1001.7C-198.305 1001.7 -437.931 908.154 -621.081 740.861L727.756 -735.837C543.46 -904.176 302.356 -998.299 51.25 -998.299L51.25 1001.7ZM-652.785 -705.577L-654.878 -703.491L757.368 712.688L759.461 710.601L-652.785 -705.577ZM748.013 -712.699C678.879 -779.854 600.258 -836.999 514.395 -882.166L-416.713 887.873C-500.816 843.632 -577.819 787.66 -645.522 721.896L748.013 -712.699ZM51.25 -992.125C300.796 -992.125 540.443 -898.582 723.617 -731.253L-625.292 745.381C-440.972 913.757 -199.847 1007.87 51.25 1007.87L51.25 -992.125ZM755.299 715.139L757.383 713.062L-654.891 -703.088L-656.975 -701.011L755.299 715.139ZM-664.354 703.498C-731.124 635.094 -788.038 556.96 -832.907 471.283L938.839 -456.572C893.062 -543.984 834.991 -623.711 766.845 -693.524L-664.354 703.498ZM-502.14 -824.425C-338.205 -933.83 -145.617 -992.125 51.25 -992.125L51.25 1007.87C249.345 1007.87 443.118 949.22 608.072 839.135L-502.14 -824.425ZM757.573 712.873L759.664 710.786L-652.6 -705.373L-654.692 -703.287L757.573 712.873ZM-682.985 679.125C-850.879 496.315 -945.655 256.059 -945.655 4.7882L1054.35 4.7882C1054.35 -248.029 958.993 -489.759 790.05 -673.712L-682.985 679.125ZM-945.655 4.7882C-945.655 -299.497 -806.955 -584.447 -573.268 -772.264L679.649 786.645C914.805 597.647 1054.35 310.953 1054.35 4.7882L-945.655 4.7882ZM937.149 -460.375C891.613 -546.462 834.134 -625.021 766.847 -693.915L-663.967 703.5C-729.858 636.034 -786.161 559.088 -830.768 474.756L937.149 -460.375Z" fill="white" mask="url(#path-1-inside-1_1_812)"/>
</g>
<path d="M63.0799 10.5647C63.0799 8.33497 63.0173 6.51055 62.9233 6.05839C63.0486 6.08959 63.4242 6.08959 63.6121 6.08959C63.9564 6.08959 64.4103 6.07399 64.5512 6.04279C64.4886 6.61977 64.4259 8.33497 64.4259 10.5179V13.1999C64.4259 16.3497 64.4573 16.7395 64.5356 16.8019C64.6139 16.8643 64.7547 16.8955 64.9112 16.911C65.2242 16.9422 65.7721 16.9578 66.4451 16.9578C68.1982 16.9578 68.8244 16.8175 69.2 16.646C69.0592 16.9266 68.9026 17.6128 68.8401 17.8467C68.7618 17.8623 68.6053 17.8779 67.9008 17.8779C65.6156 17.8779 64.5042 17.7842 63.7529 17.7842C63.3928 17.7842 63.1581 17.7842 62.9703 17.8154C63.0173 17.2697 63.0799 15.5077 63.0799 13.3091V10.5647Z" fill="white"/>
<path d="M81.5803 6.08959C82.0187 6.08959 82.3787 6.07399 82.5665 6.04279C82.504 6.52616 82.4413 8.35057 82.4413 10.5647V12.7321C82.4413 14.7904 82.8952 15.6013 83.5527 16.2093C84.2884 16.911 85.2588 17.0202 85.9945 17.0202C86.6988 17.0202 87.6693 16.8331 88.2641 16.1781C89.0624 15.3362 89.2502 14.1978 89.2502 12.4048V10.5647C89.2502 8.33497 89.1563 6.61977 89.0779 6.05839C89.2502 6.0896 89.5477 6.0896 89.7041 6.0896C90.0329 6.0896 90.3771 6.05839 90.4555 6.04279C90.3928 6.52616 90.3145 8.35058 90.3145 10.5647V12.3736C90.3145 14.1978 90.1424 15.913 88.8275 17.067C87.8884 17.8935 86.6832 18.0493 85.6501 18.0493C84.57 18.0493 83.2709 17.7843 82.4256 17.0046C81.643 16.2717 81.0951 15.2582 81.0951 13.0128V10.5647C81.0951 8.33497 81.0326 6.44815 80.9387 6.05839C81.0795 6.0896 81.3456 6.0896 81.5803 6.0896V6.08959Z" fill="white"/>
<path d="M105.012 17.7844C104.855 17.7844 104.354 17.8156 104.245 17.8312C104.37 16.537 104.417 9.53574 104.417 6.74458C104.417 5.90266 104.448 5.82465 104.542 5.82465C104.605 5.82465 104.73 5.94931 105.043 6.26121C106.53 7.80493 112.008 14.1513 113.245 15.2895C113.214 12.7635 113.182 7.71132 113.057 6.05853C113.198 6.08973 113.464 6.08973 113.668 6.08973C113.949 6.08973 114.341 6.05853 114.45 6.04292C114.372 6.97846 114.278 10.6741 114.278 13.8394C114.278 15.1649 114.294 15.8821 114.294 16.5838C114.294 17.9247 114.262 18.0495 114.168 18.0495C114.059 18.0495 113.777 17.7688 112.916 16.8801C111.633 15.5858 107.203 10.2998 105.466 8.45977C105.497 11.8123 105.544 16.5838 105.669 17.8156C105.45 17.7844 105.231 17.7844 105.012 17.7844Z" fill="white"/>
<path d="M129.68 13.6834C129.633 13.6834 129.617 13.699 129.602 13.7302C129.116 15.0868 128.396 17.0827 128.208 17.8156C128.052 17.7844 127.911 17.7844 127.582 17.7844C127.269 17.7844 126.878 17.8156 126.753 17.8312C127.144 17.0047 127.739 15.6326 128.365 14.1201L131.464 6.46389C131.652 6.01172 131.73 5.82465 131.824 5.82465C131.902 5.82465 131.981 5.94931 132.2 6.46389C132.372 6.8538 133.906 10.3466 135.252 13.5119C135.957 15.1803 136.833 17.2074 137.24 17.8156C136.958 17.8 136.692 17.7844 136.52 17.7844C136.129 17.7844 135.69 17.8 135.503 17.8312C135.252 17.1139 134.391 14.9932 133.859 13.7302C133.844 13.699 133.844 13.6834 133.797 13.6834L129.68 13.6834V13.6834ZM133.468 12.7791C133.499 12.7791 133.515 12.7635 133.499 12.7166L131.652 8.17924L129.946 12.7166C129.93 12.7635 129.946 12.7791 129.977 12.7791L133.468 12.7791Z" fill="white"/>
<path d="M149.651 10.5649C149.651 8.33513 149.62 6.57312 149.464 6.05855C149.745 6.08975 149.949 6.08975 150.184 6.08975C150.497 6.08975 151.702 6.02734 152.25 6.02734C153.314 6.02734 154.316 6.16777 154.989 6.58873C155.803 7.1033 156.382 8.02323 156.382 9.146C156.382 10.5025 155.74 11.5941 154.473 12.4672C155.474 13.7926 156.617 15.3676 157.697 16.5214C158.354 17.2542 158.839 17.6597 159.137 17.7844C158.933 17.8624 158.495 17.878 158.119 17.878C157.415 17.878 157.039 17.6752 156.398 17.0047C155.537 16.1472 154.081 13.9953 153.361 13.0286C153.298 12.9506 153.236 12.9193 153.158 12.9193C152.829 12.9349 151.702 12.9193 151.013 12.9039C150.966 12.9039 150.966 12.9349 150.966 12.9974V13.4807C150.966 15.4454 151.029 17.1296 151.107 17.8156C150.966 17.7844 150.685 17.7844 150.418 17.7844C150.137 17.7844 149.667 17.8 149.495 17.8312C149.589 17.301 149.651 15.3364 149.651 13.3093V10.5649V10.5649ZM150.966 11.8435C150.966 11.937 150.982 11.9682 151.013 11.9838C151.326 12.0462 152.109 12.093 152.939 12.093C153.392 12.093 153.643 12.0462 153.846 11.906C154.473 11.4536 155.036 10.6429 155.036 9.52015C155.036 7.86736 153.972 6.85382 152.172 6.85382C151.686 6.85382 151.248 6.86942 151.029 6.91623C150.966 6.93168 150.966 6.96288 150.966 7.02529V11.8435Z" fill="white"/>
<path d="M172.253 13.6834C172.206 13.6834 172.191 13.699 172.175 13.7302C171.69 15.0868 170.97 17.0827 170.782 17.8156C170.625 17.7844 170.485 17.7844 170.156 17.7844C169.843 17.7844 169.451 17.8156 169.326 17.8312C169.718 17.0047 170.312 15.6326 170.938 14.1201L174.038 6.46389C174.225 6.01172 174.304 5.82465 174.398 5.82465C174.476 5.82465 174.554 5.94931 174.773 6.46389C174.945 6.8538 176.479 10.3466 177.826 13.5119C178.53 15.1803 179.407 17.2074 179.814 17.8156C179.532 17.8 179.266 17.7844 179.094 17.7844C178.702 17.7844 178.264 17.8 178.076 17.8312C177.826 17.1139 176.965 14.9932 176.433 13.7302C176.417 13.699 176.417 13.6834 176.37 13.6834L172.253 13.6834L172.253 13.6834ZM176.041 12.7791C176.073 12.7791 176.088 12.7635 176.073 12.7166L174.225 8.17924L172.519 12.7166C172.504 12.7635 172.519 12.7791 172.551 12.7791L176.041 12.7791Z" fill="white"/>
<defs>
<filter id="filter0_d_1_812" x="-59.9352" y="0" width="207.922" height="207.856" filterUnits="userSpaceOnUse" color-interpolation-filters="sRGB">
<feFlood flood-opacity="0" result="BackgroundImageFix"/>
<feColorMatrix in="SourceAlpha" type="matrix" values="0 0 0 0 0 0 0 0 0 0 0 0 0 0 0 0 0 0 127 0" result="hardAlpha"/>
<feOffset dy="91.9354"/>
<feGaussianBlur stdDeviation="45.9677"/>
<feComposite in2="hardAlpha" operator="out"/>
<feColorMatrix type="matrix" values="0 0 0 0 0 0 0 0 0 0 0 0 0 0 0 0 0 0 0.25 0"/>
<feBlend mode="normal" in2="BackgroundImageFix" result="effect1_dropShadow_1_812"/>
<feBlend mode="normal" in="SourceGraphic" in2="effect1_dropShadow_1_812" result="shape"/>
</filter>
</defs>
</svg>
